<svg width="267" height="86" viewBox="0 0 267 86" fill="none" xmlns="http://www.w3.org/2000/svg">
<path d="M69.147 68.9049C68.8054 68.8601 68.5433 68.5638 68.5437 68.2072C68.5434 67.8142 68.8538 67.4927 69.2399 67.4905L113.877 67.2172C114.266 67.2154 114.574 67.5318 114.577 67.9252C114.578 68.3154 114.264 68.6366 113.878 68.6388L69.2419 68.9124C69.2092 68.9103 69.1793 68.9091 69.147 68.9049Z" fill="#030404"/>
<path d="M76.5719 74.6534C76.2331 74.6086 75.9706 74.3153 75.9687 73.9553C75.9652 73.5642 76.2757 73.2428 76.6618 73.2409L102.269 72.9863C102.65 72.9803 102.968 73.295 102.971 73.689C102.972 74.079 102.661 74.4004 102.275 74.4054L76.6699 74.6579C76.6369 74.6587 76.6042 74.6576 76.5719 74.6534Z" fill="#030404"/>
<path d="M67.6675 74.7411C67.3286 74.6963 67.0661 74.403 67.0642 74.043C67.0607 73.6529 67.3712 73.3315 67.7573 73.3286L73.7362 73.2677C74.1197 73.2647 74.4341 73.5794 74.4375 73.9694C74.4378 74.3624 74.1274 74.6848 73.7412 74.6868L67.7655 74.7456C67.7324 74.7464 67.6998 74.7453 67.6675 74.7411Z" fill="#030404"/>
<path d="M61.9249 74.7983C61.5859 74.7545 61.3235 74.4601 61.3215 74.1011C61.3182 73.7101 61.6285 73.3887 62.0147 73.3867L65.1001 73.3548C65.4839 73.3488 65.8006 73.6664 65.8013 74.0564C65.8044 74.4505 65.494 74.7719 65.1079 74.7738L62.0228 74.8028C61.9898 74.8046 61.9572 74.8024 61.9249 74.7983Z" fill="#030404"/>
<path d="M190.77 64.0153C190.429 63.9704 190.164 63.6738 190.167 63.3119C190.167 62.919 190.483 62.6036 190.866 62.601L195.373 62.597C195.757 62.5945 196.07 62.9143 196.068 63.307C196.065 63.6996 195.752 64.0181 195.367 64.0175L190.859 64.0216C190.829 64.0204 190.799 64.0193 190.77 64.0153Z" fill="#030404"/>
<path d="M176.694 64.0293C176.352 63.9843 176.088 63.6876 176.092 63.3258C176.091 62.9328 176.406 62.6147 176.789 62.6149L187.112 62.6087C187.493 62.6058 187.809 62.9234 187.807 63.316C187.805 63.7087 187.492 64.027 187.106 64.0265L176.783 64.0354C176.753 64.0343 176.723 64.0331 176.694 64.0293Z" fill="#030404"/>
<path d="M89.4392 64.0964C89.0977 64.0515 88.8329 63.7547 88.8367 63.3929C88.8364 62.9999 89.1518 62.6819 89.5348 62.6821L172.601 62.6158C172.983 62.6129 173.296 62.9328 173.297 63.3258C173.294 63.7184 172.981 64.0369 172.595 64.0363L89.5288 64.1026C89.4988 64.1014 89.4688 64.1002 89.4392 64.0964Z" fill="#030404"/>
<path d="M212.675 64.0455C212.337 64.0011 212.074 63.7101 212.072 63.3504C212.068 62.9598 212.379 62.6383 212.763 62.633L228.909 62.4139C229.295 62.4118 229.609 62.7207 229.613 63.114C229.616 63.5046 229.306 63.8261 228.922 63.8342L212.776 64.0505C212.74 64.0514 212.707 64.0498 212.675 64.0455Z" fill="#030404"/>
<path d="M125.479 72.5275L124.439 72.5271L123.682 80.9473L127.147 80.9423L127.315 79.0672L129.923 79.0638L129.457 84.2334L119.104 84.2385L119.394 81.0129L120.306 81.0107L121.067 72.5295L120.156 72.5298L120.446 69.3022L125.769 69.299L125.479 72.5275Z" fill="#030404"/>
<path d="M138.34 80.9358L139.095 72.5186L137.781 72.5188L138.071 69.2912L143.742 69.2868L143.451 72.5143L142.466 72.5162L141.654 81.5671C141.626 81.8919 141.548 82.2105 141.422 82.5259C141.296 82.8432 141.124 83.1273 140.908 83.3802C140.69 83.6361 140.423 83.8377 140.105 83.994C139.789 84.1504 139.422 84.2245 139.009 84.2263L133.632 84.2303C133.243 84.2293 132.906 84.1575 132.621 84.008C132.336 83.8625 132.105 83.6643 131.927 83.4184C131.749 83.1715 131.619 82.8868 131.539 82.5644C131.461 82.2419 131.435 81.9098 131.463 81.574L132.297 72.5232L131.421 72.5216L131.712 69.2941L137.106 69.2892L136.815 72.5177L135.649 72.5206L134.893 80.9378L138.34 80.9358Z" fill="#030404"/>
<path d="M153.647 77.5073L154.096 72.5086L153.166 72.5088L153.456 69.2802L158.122 69.2775L157.832 72.5061L156.775 72.5066L155.715 84.2982L152.562 84.3018L148.199 75.2529L148.109 75.2524L147.593 80.9928L148.523 80.9927L148.234 84.2202L143.858 84.2224L144.147 80.9939L145.078 80.9937L145.84 72.5126L144.91 72.5137L145.199 69.2852L149.501 69.2826L153.557 77.5069L153.647 77.5073Z" fill="#030404"/>
<path d="M164.618 73.0497L163.108 77.0598L165.443 77.057L164.727 73.0502L164.618 73.0497ZM166.021 79.7581L162.083 79.7585L161.626 80.9832L163.012 80.9814L162.721 84.2099L157.765 84.2131L158.055 80.9856L158.911 80.986L163.732 69.1264L167.341 69.1242L169.957 80.9776L170.833 80.9782L170.542 84.2067L164.418 84.2098L164.708 80.9822L166.257 80.9823L166.021 79.7581Z" fill="#030404"/>
<path d="M182.141 72.5559L181.904 75.1928L184.731 75.1935L184.968 72.5547L182.141 72.5559ZM178.74 72.4942L177.809 72.4974L178.1 69.2662L186.484 69.2617C186.848 69.2622 187.164 69.3317 187.431 69.4725C187.697 69.6139 187.913 69.798 188.082 70.0319C188.249 70.2628 188.365 70.5264 188.43 70.8217C188.495 71.117 188.514 71.4121 188.489 71.707L188.118 75.8221C188.092 76.117 188.018 76.4196 187.9 76.73C187.779 77.0404 187.617 77.3226 187.412 77.5855C187.206 77.8454 186.956 78.0611 186.663 78.2286C186.367 78.3961 186.031 78.4823 185.656 78.4803L181.608 78.4833L181.385 80.9741L182.515 80.974L182.225 84.2025L176.757 84.206L177.048 80.9775L177.978 80.9774L178.74 72.4942Z" fill="#030404"/>
<path d="M194.292 73.0325L192.782 77.0427L195.117 77.0398L194.401 73.033L194.292 73.0325ZM195.695 79.7409L191.757 79.7424L191.301 80.967L192.686 80.9642L192.395 84.1927L187.439 84.1959L187.73 80.9684L188.586 80.9688L193.407 69.1093L197.016 69.1071L199.631 80.9604L200.507 80.961L200.216 84.1895L194.092 84.1926L194.382 80.9651L195.931 80.9651L195.695 79.7409Z" fill="#030404"/>
<path d="M206.712 72.5398L206.514 74.7548L209.338 74.7525L209.536 72.5376L206.712 72.5398ZM206.793 77.9403L206.226 77.9414L205.955 80.958L206.867 80.9578L206.576 84.1853L201.328 84.1899L201.618 80.9614L202.546 80.9612L203.307 72.4801L202.379 72.4813L202.67 69.25L211.055 69.2456C211.419 69.246 211.733 69.3152 212.001 69.4564C212.268 69.5977 212.485 69.7819 212.653 70.0158C212.82 70.2466 212.936 70.5102 213.001 70.8056C213.066 71.1009 213.084 71.396 213.057 71.6909L212.708 75.5741C212.683 75.869 212.62 76.1597 212.523 76.4392C212.423 76.7217 212.286 76.9709 212.11 77.187C211.931 77.4061 211.705 77.5859 211.432 77.7255C211.156 77.8671 210.832 77.9394 210.455 77.9374L210.184 77.938L211.141 81.04L212.545 81.0373L212.264 84.1809L208.599 84.1838L206.793 77.9403Z" fill="#030404"/>
<path d="M221.297 69.2398L226.565 69.2354L226.257 72.4635L224.908 72.4644L222.657 74.7997L224.931 80.9457L225.823 80.9453L225.533 84.1738L220.193 84.177L220.481 80.9485L221.193 80.9472L219.945 77.5956L218.093 79.529L217.966 80.9724L218.804 80.9707L218.516 84.1773L213.357 84.1814L213.645 80.9758L214.54 80.9735L215.301 72.4704L214.409 72.4727L214.699 69.245L219.858 69.2402L219.568 72.4686L218.727 72.4692L218.407 76.0556L221.79 72.4672L221.007 72.4681L221.297 69.2398Z" fill="#030404"/>
<path d="M228.216 10.3258L228.573 6.60222L208.9 7.07109L208.472 10.5515L211.329 10.5116L206.373 50.8663L203.517 50.9061L203.09 54.3838L222.832 54.1608L223.259 50.6804L220.403 50.7202L225.358 10.3656L228.216 10.3258Z" fill="#F2788F"/>
<path d="M258.699 10.1624L262.76 6.64137L246.22 6.75556L236.2 6.37243L235.615 6.39299L233.344 6.38725L232.831 10.2965L235.687 10.2817L230.395 50.5282L227.539 50.543L227.076 54.0855L229.932 54.0707L229.932 54.0762L250.087 53.9718L250.088 53.9636L252.945 53.9488L253.402 50.475L250.546 50.4898L255.843 10.1773L258.699 10.1624Z" fill="#F2788F"/>
<path d="M110.536 8.86526L110.992 5.39149L98.0564 5.45837L87.9797 5.51076L85.1237 5.52557L84.6096 9.43764L87.4656 9.42283L87.3154 10.5653L84.1464 34.6788L84.0017 35.7801C83.4817 37.696 81.6431 38.9844 79.6553 38.7231C77.7615 38.4742 76.3615 36.9051 76.2233 35.0421L76.4183 33.4542L79.2041 10.7784L79.4443 8.82571L82.3008 8.7859L82.6017 5.49792L62.9854 5.53119L62.5582 9.01161L65.4147 8.97179L63.0088 28.799C61.6596 39.0641 67.6828 48.9939 76.9736 52.1322C77.6103 52.3469 78.2591 52.5325 78.9257 52.687C79.5656 52.8352 80.2204 52.9547 80.8847 53.042C81.5761 53.1328 82.2613 53.1867 82.9424 53.2093C83.4112 53.2235 83.8772 53.2179 84.3419 53.2009C93.8283 52.8508 102.109 45.5004 104.129 35.8948C104.242 35.3495 104.344 34.8027 104.417 34.2411C104.491 33.6822 104.534 33.1249 104.566 32.5718L107.68 8.88007L110.536 8.86526Z" fill="#F2788F"/>
<path d="M142.42 31.0012L140.493 31.0824L135.205 31.3044L136.575 20.546L141.497 20.3819L142.218 20.4431C146.212 21.1129 146.921 22.6747 146.563 26.2144C146.281 29.0228 144.62 30.4934 142.42 31.0012ZM157.655 24.6818C158.279 12.6243 149.526 6.13986 138.573 5.63397L128.512 5.68573L118.493 5.30261L115.58 5.75573L115.123 9.22949L117.979 9.21468L115.959 24.5863L114.891 32.7118L112.681 49.5272L112.591 49.5264L109.825 49.542L109.369 53.0157L112.225 53.0009L112.224 53.0064L132.38 52.9019L132.38 52.8965L135.237 52.8816L135.694 49.4052L132.838 49.42L133.036 47.9105L133.438 44.8531L135.815 44.9844C157.439 44.6019 157.63 25.1553 157.655 24.6818Z" fill="#F2788F"/>
<path d="M189.047 30.7706L187.12 30.8518L181.832 31.0737L183.202 20.3153L188.124 20.1512L188.844 20.2124C192.838 20.8823 193.547 22.4441 193.189 25.9837C192.907 28.7921 191.247 30.2628 189.047 30.7706ZM204.281 24.4512C204.906 12.3936 196.152 5.90925 185.2 5.40336L175.139 5.45513L165.062 5.51031L162.206 5.52512L161.75 8.99889L164.606 8.98408L162.586 24.3557L161.517 32.4812L159.308 49.2965L159.218 49.2958L156.452 49.3113L155.995 52.7851L158.852 52.7703L158.851 52.7758L179.007 52.6713L179.007 52.6658L181.863 52.651L182.321 49.1746L179.464 49.1894L179.662 47.6799L180.064 44.6225L182.442 44.7538C204.066 44.3712 204.257 24.9246 204.281 24.4512Z" fill="#F2788F"/>
<path d="M55.822 8.88394L58.2454 8.87077L58.7019 5.397L32.8335 5.53108L32.3766 9.00755L34.2608 8.99597L27.0309 22.1781L21.1278 9.00352L23.3512 9.07551L23.8081 5.59904L5.17045 5.5157L4.71394 8.98947L6.80852 8.98049L17.9372 36.779L16.1715 50.2137L13.8364 50.2217L13.6586 53.2193L14.7402 53.2137L32.008 53.0808L32.0086 53.0753L34.8674 53.0609L35.324 49.5872L32.4653 49.6016L33.4816 41.0763L55.822 8.88394Z" fill="#F2788F"/>
<path d="M58.8521 8.93384L61.2756 8.92067L61.7321 5.4469L37.9989 5.0534L37.2909 9.04596L30.0611 22.228L24.1579 9.05342L26.3813 9.1254L26.9032 5.48747L10.3215 5.23125L10.2596 5.61883L9.83862 9.03038L20.9674 36.8289L19.2017 50.2636L18.8003 53.4018L16.6887 53.2692L17.7704 53.2636L35.0381 53.1307L35.0388 53.1252L37.8976 53.1108L38.3541 49.6371L35.4953 49.6516L36.5118 41.1263L58.8521 8.93384Z" fill="#F59CBA"/>
<path d="M231.37 10.1716L231.846 6.77294L214.887 6.90476L214.483 10.3575L209.527 50.7121L209.018 54.8534L225.986 54.0066L226.413 50.5263L223.557 50.5661L228.512 10.2114L231.37 10.1716Z" fill="#F59CBA"/>
<path d="M261.595 10.5109L262.224 6.32694L249.291 6.39414L239.212 6.44621L239.039 7.15652L236.356 6.46102L239.039 7.15652L238.583 10.6302L233.285 50.9427L232.736 55.2795L229.972 54.434L232.828 54.4192L232.827 54.4247L252.984 54.3202L252.985 54.312L255.841 54.2972L256.468 50.1324L253.611 50.1473L258.739 10.5257L261.595 10.5109Z" fill="#F59CBA"/>
<path d="M113.712 9.147L114.169 5.67323L101.234 5.74011L91.1569 5.79249L88.3008 5.80731L91.1569 5.79249L90.7003 9.26626L90.4926 10.847L87.3236 34.9605L87.1788 36.0619C86.6589 37.9778 84.8204 39.2661 82.8325 39.0049C80.9388 38.756 79.5387 37.187 79.4005 35.3238L79.5955 33.7359L82.3813 11.0601L82.5639 9.54586L85.4204 9.50595L85.7789 5.77966L69.1592 5.31214L68.5919 9.25353L66.1859 29.0808C64.8369 39.3459 70.9172 48.84 80.2081 51.9785C80.8448 52.1931 81.4935 52.3787 82.1604 52.5304C82.8005 52.6786 83.5446 52.9715 84.209 53.0588C84.9003 53.1496 85.4831 53.3378 86.1619 53.3573C86.6333 53.3719 87.1116 53.0641 87.5763 53.0471C97.0632 52.6942 105.286 45.7822 107.306 36.1766C107.419 35.6313 107.521 35.0845 107.595 34.5229C107.668 33.964 107.712 33.4068 107.743 32.8535L110.857 9.16182L113.712 9.147Z" fill="#F59CBA"/>
<path d="M145.529 30.9167L143.603 30.9979L138.314 31.2198L139.685 20.4614L144.607 20.2973L145.327 20.3585C149.322 21.0284 150.031 22.5902 149.672 26.1298C149.391 28.9382 147.731 30.4088 145.529 30.9167ZM160.764 24.5973C161.388 12.5397 152.636 6.05537 141.682 5.54948L131.622 5.60125L121.545 5.65643L118.689 5.67124L121.545 5.65643L121.088 9.13009L119.068 24.5018L118.001 32.6273L115.171 53.1125L115.334 52.9164L115.333 52.9219L135.364 52.8176L135.49 52.8174L135.491 52.812L138.347 52.7971L138.803 49.3207L135.947 49.3355L136.146 47.826L136.566 44.9606L138.925 44.8999C160.548 44.5173 160.74 25.0707 160.764 24.5973Z" fill="#F59CBA"/>
<path d="M192.069 30.889L190.143 30.9704L184.854 31.1922L186.224 20.4338L191.147 20.2698L191.867 20.3309C195.861 21.0009 196.57 22.5627 196.212 26.1023C195.93 28.9106 194.271 30.3813 192.069 30.889ZM161.874 52.8889L161.874 52.8944L182.03 52.7899L182.031 52.7844L184.887 52.7696L185.343 49.2931L182.488 49.3079L182.686 47.7985L183.088 44.7411L185.465 44.8723C207.089 44.4898 207.281 25.0431 207.304 24.5696C207.928 12.5121 199.176 6.02773 188.223 5.52194L178.134 4.81195L168.235 4.48915L165.586 4.53114L168.123 4.96497L167.628 9.10255L165.608 24.4742L164.541 32.5997L162.331 49.4151L161.727 52.903" fill="#F59CBA"/>
<path d="M261.648 10.0913L258.792 10.1061L253.495 50.4186L256.351 50.4038L255.894 53.8775L253.038 53.8923L253.037 53.9006L227.085 54.0014L227.542 50.5276L230.398 50.5128L230.566 49.2362L235.563 11.2112L235.696 10.2003L232.84 10.2151L233.296 6.73864L235.996 6.72561L236.152 6.72383L246.23 6.67145L259.165 6.60456L262.105 6.61749L261.648 10.0913ZM203.091 54.3483L203.518 50.8706L206.374 50.8308L208.046 37.2387L210.617 16.2962L211.331 10.4761L208.476 10.5163L208.903 7.03591L228.918 6.85142L231.847 6.75438L231.373 10.1366L228.516 10.1764L228.515 10.1791L223.838 48.2739L223.56 50.531L226.416 50.4912L225.987 53.9685L203.091 54.3483ZM203.868 35.7588C200.946 40.3577 195.525 44.6617 185.465 44.8389L183.088 44.7077L182.686 47.765L182.488 49.2745L185.343 49.2597L184.887 52.7335L182.031 52.751L182.03 52.7565L162.075 52.723L161.878 52.7248L159.036 52.7387L155.996 52.749L156.454 49.2753L159.222 49.2601L159.31 49.2605L160.759 38.231L161.519 32.4451L162.587 24.3195L163.719 15.7119L164.607 8.94797L161.751 8.96278L162.208 5.48631L165.064 5.4715L175.141 5.41912L185.204 5.36766C185.762 5.39357 188.225 5.48881 188.225 5.48881C189.039 5.52605 189.837 5.59472 190.625 5.69833C197.855 6.64852 203.81 10.3795 206.204 16.7529C207.053 19.0159 207.456 21.6106 207.307 24.5366C207.293 24.7885 207.23 30.4682 203.868 35.7588ZM138.77 44.8667L138.112 44.8278C137.548 44.8789 136.963 44.9108 136.367 44.9327L135.991 47.7901L135.792 49.3023L138.648 49.2875L138.192 52.7612L135.24 52.8442L132.381 52.8614L132.379 52.8669L112.226 52.9717L112.227 52.9662L109.371 52.981L109.828 49.5045L112.593 49.4917L112.684 49.4897L114.893 32.6771L115.961 24.5515L117.808 10.4977L117.981 9.17996L115.125 9.19477L115.582 5.71821L121.391 5.62048L131.467 5.5681L141.528 5.51353C142.341 5.55077 143.142 5.62254 143.927 5.72574C150.946 6.64813 156.763 10.1856 159.289 16.2223C160.288 18.6138 160.774 21.3948 160.609 24.5641C160.596 24.8299 160.528 31.1165 156.607 36.6264C153.567 40.895 148.213 44.6977 138.77 44.8667ZM87.5432 53.0999C87.0785 53.1169 83.4714 53.1835 83.0003 53.1661C82.3215 53.1466 81.6335 53.0924 80.9449 53.0019C80.2777 52.9142 79.6262 52.7924 78.9861 52.6441C78.3192 52.4924 77.6678 52.3064 77.0311 52.0918C67.7429 48.9538 61.6625 39.4596 63.0116 29.1945L65.2631 10.6261L65.445 8.99184L62.5885 9.03165L63.0154 5.55403L91.1234 5.84803L101.203 5.79327L111.214 5.74334L114.136 5.72607L113.679 9.20253L110.824 9.21735L110.806 9.35166L107.71 32.909C107.68 33.4626 107.634 34.0196 107.561 34.5784C107.488 35.1372 107.389 35.6871 107.273 36.2294C105.253 45.8377 97.0296 52.7498 87.5432 53.0999ZM58.8448 8.97164L58.2507 9.82716L36.5075 41.1618L35.491 49.687L38.3471 49.6722L37.8901 53.1486L35.0341 53.1634L35.0334 53.1689L16.6917 53.1662L14.7415 53.1803L13.6602 53.1831L13.8381 50.1855L16.1729 50.1802L17.9385 36.7454L6.80979 8.94704L4.71521 8.95602L5.17173 5.48225L26.8309 5.68674L26.3743 9.16051L24.1509 9.08852L28.666 19.1656L34.2621 8.96252L32.3783 8.9714L32.8348 5.49763L61.7251 5.482L61.2682 8.95847L58.8448 8.97164ZM265.936 10.6547L266.392 7.18104C266.558 5.92078 266.184 4.65092 265.362 3.70122C264.666 2.89628 263.712 2.38361 262.679 2.24792C262.491 2.22314 262.298 2.21173 262.103 2.21402L259.647 2.22571C259.486 2.20718 259.325 2.20004 259.163 2.20109L246.228 2.26798L236.151 2.32036L233.295 2.33517C232.928 2.33716 232.571 2.3905 232.231 2.47953C232.051 2.45589 231.869 2.44314 231.686 2.44409L212.069 2.47745C211.683 2.47694 211.307 2.53057 210.946 2.6281L208.915 2.63431C206.729 2.63672 204.88 4.2999 204.608 6.51042L204.55 7.00152C201.131 4.03016 196.595 2.04059 191.199 1.33146C190.297 1.21306 189.37 1.13292 188.442 1.08899C188.369 1.08501 188.295 1.08362 188.224 1.08545L187.079 1.09108C186.49 1.03321 185.946 0.992272 185.421 0.967836C185.348 0.963756 185.274 0.96247 185.2 0.963885L175.139 1.01565L165.063 1.06803L162.207 1.08285C160.038 1.09604 158.207 2.73662 157.921 4.92276L157.666 6.85966C154.268 3.98011 149.801 2.0554 144.501 1.35897C143.601 1.24048 142.675 1.15795 141.745 1.11381C141.674 1.11274 141.6 1.11145 141.526 1.11016L131.466 1.16193L121.39 1.21702L118.533 1.23183C118.273 1.23117 118.015 1.25583 117.768 1.30414L115.578 1.31442C115.332 1.31554 115.087 1.34197 114.85 1.38313C114.804 1.37709 114.756 1.36524 114.71 1.3592C114.522 1.33452 114.329 1.32311 114.135 1.3227L101.199 1.38949L91.1224 1.44187L88.266 1.45948C88.0606 1.46031 87.8588 1.47566 87.6607 1.50533L86.5764 1.51057C86.491 1.49373 86.4053 1.47968 86.3192 1.46833C86.1336 1.44396 85.9465 1.43059 85.7577 1.43081L66.1415 1.46407C65.9116 1.46457 65.6873 1.4852 65.4665 1.52025L63.6272 1.52387C63.2108 1.31859 62.7644 1.17636 62.299 1.11514C62.1107 1.09045 61.9178 1.07905 61.7236 1.07854L59.7712 1.08946C59.6096 1.04872 59.4442 1.01586 59.2775 0.993986C59.0892 0.969204 58.8964 0.9578 58.7018 0.960086L32.8334 1.09417C31.6366 1.10133 30.5417 1.60403 29.7527 2.42273C29.0987 1.81841 28.282 1.43245 27.4051 1.31718C27.2303 1.29417 27.0513 1.28183 26.8705 1.28319L24.7977 1.27268C24.6597 1.24066 24.5232 1.21715 24.3833 1.19872C24.2057 1.1754 24.0295 1.16338 23.8491 1.16194L5.21138 1.0786C3.0292 1.06773 1.17346 2.71618 0.883984 4.9187L0.427453 8.39247C0.261842 9.65272 0.636749 10.9226 1.45874 11.8723C2.09037 12.6046 2.93982 13.0952 3.86268 13.2778L13.4957 37.3405L12.35 46.0577C10.778 46.6509 9.62652 48.1467 9.51927 49.9412L9.34144 52.9388C9.26888 54.1778 9.7097 55.3839 10.5592 56.2703C11.2405 56.9785 12.1311 57.4272 13.0859 57.5527C13.32 57.5834 13.5592 57.5954 13.7987 57.585L14.3267 57.5653C14.4672 57.5781 14.6086 57.5855 14.754 57.5824L15.611 57.578C15.7753 57.6191 15.9407 57.652 16.1102 57.6743C16.3442 57.705 16.5811 57.7138 16.8228 57.7066L17.3481 57.6864C17.4887 57.6994 17.6331 57.7044 17.7755 57.7036L35.0456 57.5738C35.1196 57.5724 35.1911 57.5706 35.2655 57.5664L37.8916 57.5521C40.0602 57.5417 41.8907 55.8983 42.178 53.7121L42.6348 50.2356C42.8 48.9782 42.4252 47.7083 41.6035 46.7559C41.2375 46.3343 40.7982 45.9923 40.3166 45.7423L40.6704 42.779L60.4659 14.2513L58.7206 28.6557C57.1342 40.8098 64.2525 52.4217 75.6526 56.2721C76.4309 56.5333 77.2221 56.7599 78.0109 56.9416C78.8051 57.1239 79.6016 57.2677 80.371 57.3688C81.178 57.4748 82.0118 57.5427 82.8485 57.5689C83.3852 57.5865 83.9383 57.584 84.5377 57.5624C84.8815 57.5491 85.2322 57.5255 85.6276 57.4939C85.747 57.5012 85.8695 57.5062 85.9894 57.5108C86.5265 57.5256 87.0795 57.5231 87.6789 57.5015C93.2419 57.2962 98.674 55.1675 102.974 51.5106C103.887 50.7331 104.74 49.8892 105.53 48.9954L105.08 52.4171C104.915 53.6774 105.292 54.9449 106.114 55.8972C106.807 56.7018 107.764 57.2121 108.794 57.3474C108.985 57.3726 109.178 57.3839 109.372 57.3844L112.001 57.3704C112.077 57.3748 112.151 57.3761 112.228 57.3751L132.384 57.2707C132.461 57.2696 132.538 57.2686 132.613 57.2617L135.241 57.2504C135.501 57.2483 135.756 57.2234 136.003 57.1777L138.193 57.1647C140.359 57.1539 142.192 55.5137 142.48 53.3247L142.936 49.851C142.975 49.5551 142.984 49.2581 142.965 48.9657C148.504 48.2361 152.612 46.2734 155.655 43.8781L155.51 44.9793C153.771 45.3835 152.41 46.8489 152.165 48.7118L151.709 52.1855C151.544 53.4457 151.918 54.7129 152.74 55.6653C153.436 56.4702 154.389 56.9802 155.423 57.1159C155.612 57.1406 155.803 57.1547 155.998 57.1525L157.951 57.1415C158.111 57.185 158.277 57.2151 158.444 57.2371C158.635 57.2622 158.828 57.2763 159.02 57.2737L161.651 57.26C161.724 57.2641 161.801 57.2657 161.875 57.2643L182.031 57.1599C182.108 57.1588 182.185 57.1577 182.262 57.1512L184.888 57.1396C187.057 57.1264 188.89 55.4862 189.177 53.2972L189.634 49.8236C189.673 49.5277 189.681 49.2334 189.663 48.941C195.561 48.1611 199.838 45.9867 202.932 43.3778L202.537 46.5866C200.805 47.0026 199.453 48.4804 199.225 50.3455L198.798 53.8231C198.644 55.082 199.03 56.3451 199.855 57.2896C200.55 58.0805 201.497 58.5838 202.517 58.7178C202.716 58.744 202.917 58.7565 203.12 58.7525L222.862 58.5296C223.207 58.5248 223.541 58.4795 223.864 58.3966L226.015 58.3727C226.147 58.3705 226.277 58.3625 226.404 58.3513C226.442 58.3563 226.476 58.3636 226.511 58.3682C226.7 58.393 226.892 58.4071 227.087 58.4048L229.549 58.3911C229.708 58.4092 229.865 58.4188 230.027 58.4177L232.658 58.404C232.732 58.4081 232.808 58.4098 232.882 58.4084L253.039 58.3039C253.115 58.3029 253.192 58.2991 253.27 58.2953L255.896 58.2809C258.064 58.2705 259.895 56.6299 260.182 54.441L260.638 50.9672C260.804 49.7071 260.428 48.4399 259.607 47.4875C259.253 47.0787 258.834 46.745 258.371 46.5002L262.592 14.3844C264.331 13.983 265.692 12.5177 265.936 10.6547Z" fill="#030404"/>
<path d="M84.701 9.14996L82.5847 9.17833L82.3472 11.1314L79.5614 33.8071L79.3664 35.3951C79.476 36.9144 80.427 38.235 81.7992 38.8082C82.8537 38.3225 83.6784 37.3775 84.0009 36.1937L84.146 35.0896L87.3147 10.9788L87.556 9.10154L84.701 9.14996Z" fill="#030404"/>
<path d="M142.219 20.4239L141.62 20.3732L139.529 20.4438L138.164 31.1611L140.494 31.0634L142.421 30.982C144.62 30.474 146.279 29.0032 146.563 26.1979C146.919 22.6552 146.212 21.0965 142.219 20.4239Z" fill="#030404"/>
<path d="M189.448 20.3086L186.224 20.4172L184.887 30.9263L187.121 30.8326L189.048 30.7513C191.245 30.2431 192.906 28.7725 193.19 25.9672C193.529 22.6118 192.907 21.0363 189.448 20.3086Z" fill="#030404"/>
</svg>
